<?xml version="1.0" standalone="no"?>
<!DOCTYPE svg PUBLIC "-//W3C//DTD SVG 20010904//EN"
 "http://www.w3.org/TR/2001/REC-SVG-20010904/DTD/svg10.dtd">
<svg version="1.0" xmlns="http://www.w3.org/2000/svg"
 width="512.000000pt" height="512.000000pt" viewBox="0 0 512.000000 512.000000"
 preserveAspectRatio="xMidYMid meet">
<metadata>
Created by potrace 1.14, written by Peter Selinger 2001-2017
</metadata>
<g transform="translate(0.000000,512.000000) scale(0.100000,-0.100000)"
fill="#000000" stroke="none">
<path d="M1572 4932 c-12 -2 -30 -14 -38 -28 -17 -24 -27 -84 -15 -84 3 0 6
-11 6 -25 0 -22 -4 -25 -32 -25 -18 0 -34 1 -36 3 -8 6 -57 -55 -60 -75 -4
-21 19 -74 46 -106 18 -22 13 -162 -7 -207 -10 -22 -19 -47 -21 -56 -8 -38
-28 -105 -35 -120 -5 -9 -12 -34 -15 -55 -10 -55 -28 -115 -70 -224 -20 -52
-38 -99 -39 -105 -2 -5 -6 -17 -9 -25 -17 -44 -128 -381 -132 -401 -6 -33 -63
-224 -82 -277 -24 -67 -23 -338 1 -417 11 -33 17 -60 16 -60 -2 0 2 -10 9 -23
11 -20 10 -27 -4 -42 -20 -22 -21 -43 -6 -100 18 -65 58 -134 92 -159 16 -12
29 -31 29 -43 0 -38 68 -77 140 -79 l25 0 -22 -11 c-13 -6 -23 -15 -23 -20 0
-4 -7 -8 -15 -8 -8 0 -15 -4 -15 -10 0 -5 -5 -10 -11 -10 -21 0 -130 -93 -140
-119 -7 -17 -7 -37 -1 -58 7 -23 6 -35 -4 -45 -14 -13 -18 -36 -16 -76 1 -14
36 -58 87 -111 l84 -87 -34 -51 c-34 -51 -97 -167 -95 -178 0 -3 -7 -19 -16
-36 -8 -17 -13 -33 -10 -37 3 -3 -1 -14 -11 -24 -9 -10 -13 -21 -10 -24 3 -4
2 -14 -3 -23 -10 -20 -21 -90 -21 -146 -1 -81 22 -183 54 -239 6 -11 12 -61
13 -111 1 -49 5 -110 9 -134 4 -27 4 -41 -3 -38 -28 18 -251 35 -367 28 -41
-2 -73 -30 -80 -69 -5 -28 -1 -38 25 -62 17 -16 47 -31 70 -35 63 -11 54 -20
-18 -20 -83 0 -187 -11 -229 -24 -18 -5 -33 -8 -33 -6 0 3 -12 0 -27 -6 -14
-5 -38 -11 -52 -13 -14 -2 -48 -11 -76 -20 -27 -8 -51 -13 -54 -11 -5 6 -124
-56 -133 -70 -4 -5 -8 -7 -8 -3 0 9 -78 -71 -97 -99 -17 -26 -9 -85 16 -107
19 -17 90 -45 134 -53 16 -2 47 -11 69 -19 34 -12 301 -14 1753 -14 943 0
1716 3 1718 8 7 11 -28 79 -67 129 -33 43 -113 113 -129 113 -5 0 -15 6 -22
14 -12 12 -6 22 39 68 46 47 86 69 86 49 0 -3 30 -7 68 -7 76 -1 187 -10 248
-19 71 -11 168 -12 194 -3 14 5 33 18 43 29 10 10 25 19 35 20 45 2 61 7 80
25 47 45 24 100 -63 144 -27 14 -56 32 -66 41 -9 9 -23 21 -31 25 -18 11 -98
120 -98 134 0 5 -4 10 -9 10 -12 0 -78 184 -85 235 -3 22 -8 72 -11 110 -3 39
-7 93 -10 120 -3 28 -8 86 -11 130 -3 44 -8 83 -11 88 -3 4 -7 23 -10 40 -2
18 -9 36 -14 42 -5 5 -9 15 -9 23 0 18 -42 106 -52 110 -5 2 -8 9 -8 16 0 6
-20 33 -45 60 -25 27 -45 50 -45 51 0 0 36 38 80 83 44 45 78 82 74 82 -4 0
-1 6 5 14 16 19 8 71 -13 92 -9 8 -16 17 -16 20 0 2 20 25 45 50 30 29 45 53
45 70 0 32 -40 69 -77 72 -38 2 -200 37 -233 50 -18 7 -27 9 -39 11 -5 0 -11
11 -13 24 -4 20 0 24 21 24 58 1 69 4 98 33 24 24 30 37 28 63 -3 29 1 36 28
52 48 27 127 110 127 132 0 11 -9 32 -20 46 -13 17 -17 28 -10 32 6 4 23 31
37 61 14 29 43 74 66 100 22 25 41 56 43 70 1 14 18 58 38 99 20 41 36 78 36
82 0 5 21 55 46 113 25 58 57 139 71 180 14 41 56 138 93 215 37 77 71 154 74
170 4 17 15 41 24 55 9 14 17 31 18 38 3 14 65 95 101 129 13 12 23 25 23 28
0 4 12 20 28 35 15 16 32 35 39 42 17 18 34 32 68 54 98 63 135 108 128 157
-3 19 1 27 11 27 8 0 33 18 56 41 46 47 48 76 5 118 -24 24 -32 26 -123 26
-67 0 -114 -6 -151 -18 -68 -23 -145 -59 -149 -69 -2 -4 -11 -8 -20 -9 -9 0
-44 -18 -77 -39 -33 -22 -91 -59 -130 -82 -38 -23 -71 -46 -73 -50 -2 -5 -9
-8 -16 -8 -7 0 -26 -11 -42 -25 -16 -14 -32 -25 -36 -25 -7 0 -166 -102 -185
-120 -7 -6 -15 -10 -18 -10 -3 0 -24 -12 -48 -27 -23 -15 -62 -39 -87 -55 -25
-15 -50 -32 -57 -38 -7 -5 -15 -10 -19 -10 -7 0 -297 -186 -416 -267 -72 -48
-78 -51 -78 -30 0 26 -61 69 -161 115 -99 45 -151 55 -289 54 -52 0 -97 -1
-100 -2 -3 -1 -12 -3 -20 -5 -45 -9 -127 -37 -148 -51 -13 -8 -26 -14 -28 -12
-11 12 111 171 199 258 20 20 37 42 37 47 0 6 7 16 15 23 14 12 13 58 -1 82
-13 21 -71 39 -138 44 -57 3 -94 -1 -172 -21 -54 -15 -101 -29 -104 -33 -3 -4
-26 -17 -51 -30 -46 -23 -107 -69 -187 -139 -45 -41 -56 -44 -58 -16 -4 56
-16 158 -19 163 -2 3 -6 26 -9 50 -4 25 -9 59 -13 75 -3 17 -7 46 -9 65 -6 74
-13 116 -22 140 -5 14 -7 31 -5 38 3 6 0 12 -7 12 -6 0 -9 4 -6 8 15 25 -80
257 -110 269 -8 3 -14 10 -14 15 0 9 -58 66 -70 69 -13 3 -68 4 -88 1z m1408
-1357 c0 -2 -10 -9 -22 -15 -22 -11 -22 -10 -4 4 21 17 26 19 26 11z"/>
</g>
</svg>
